<mxfile host="app.diagrams.net" modified="2024-03-18T18:30:40.111Z" agent="Mozilla/5.0 (Windows NT 10.0; Win64; x64) AppleWebKit/537.36 (KHTML, like Gecko) Chrome/122.0.0.0 Safari/537.36" etag="mdzji-Jy-flyepN_y52f" version="23.1.8" type="google" pages="2">
  <diagram id="C5RBs43oDa-KdzZeNtuy" name="Page-1">
    <mxGraphModel grid="1" page="1" gridSize="10" guides="1" tooltips="1" connect="1" arrows="1" fold="1" pageScale="1" pageWidth="827" pageHeight="1169" math="0" shadow="0">
      <root>
        <mxCell id="WIyWlLk6GJQsqaUBKTNV-0" />
        <mxCell id="WIyWlLk6GJQsqaUBKTNV-1" parent="WIyWlLk6GJQsqaUBKTNV-0" />
        <mxCell id="L8LmuGKj_omDpBavX5br-12" value="Commodity" style="swimlane;fontStyle=1;align=center;verticalAlign=top;childLayout=stackLayout;horizontal=1;startSize=26;horizontalStack=0;resizeParent=1;resizeParentMax=0;resizeLast=0;collapsible=1;marginBottom=0;whiteSpace=wrap;html=1;" vertex="1" parent="WIyWlLk6GJQsqaUBKTNV-1">
          <mxGeometry x="-30" y="130" width="230" height="104" as="geometry" />
        </mxCell>
        <mxCell id="L8LmuGKj_omDpBavX5br-13" value="+ commoditySymbol: String&lt;br&gt;+ commodityPrice: Double" style="text;strokeColor=none;fillColor=none;align=left;verticalAlign=top;spacingLeft=4;spacingRight=4;overflow=hidden;rotatable=0;points=[[0,0.5],[1,0.5]];portConstraint=eastwest;whiteSpace=wrap;html=1;" vertex="1" parent="L8LmuGKj_omDpBavX5br-12">
          <mxGeometry y="26" width="230" height="44" as="geometry" />
        </mxCell>
        <mxCell id="L8LmuGKj_omDpBavX5br-14" value="" style="line;strokeWidth=1;fillColor=none;align=left;verticalAlign=middle;spacingTop=-1;spacingLeft=3;spacingRight=3;rotatable=0;labelPosition=right;points=[];portConstraint=eastwest;strokeColor=inherit;" vertex="1" parent="L8LmuGKj_omDpBavX5br-12">
          <mxGeometry y="70" width="230" height="8" as="geometry" />
        </mxCell>
        <mxCell id="L8LmuGKj_omDpBavX5br-15" value="- updateCommodities(): Commodity" style="text;strokeColor=none;fillColor=none;align=left;verticalAlign=top;spacingLeft=4;spacingRight=4;overflow=hidden;rotatable=0;points=[[0,0.5],[1,0.5]];portConstraint=eastwest;whiteSpace=wrap;html=1;" vertex="1" parent="L8LmuGKj_omDpBavX5br-12">
          <mxGeometry y="78" width="230" height="26" as="geometry" />
        </mxCell>
        <mxCell id="L8LmuGKj_omDpBavX5br-16" value="Exchange" style="swimlane;fontStyle=1;align=center;verticalAlign=top;childLayout=stackLayout;horizontal=1;startSize=26;horizontalStack=0;resizeParent=1;resizeParentMax=0;resizeLast=0;collapsible=1;marginBottom=0;whiteSpace=wrap;html=1;" vertex="1" parent="WIyWlLk6GJQsqaUBKTNV-1">
          <mxGeometry x="270" y="113" width="210" height="140" as="geometry" />
        </mxCell>
        <mxCell id="L8LmuGKj_omDpBavX5br-17" value="+ marketIdentifierCode: String" style="text;strokeColor=none;fillColor=none;align=left;verticalAlign=top;spacingLeft=4;spacingRight=4;overflow=hidden;rotatable=0;points=[[0,0.5],[1,0.5]];portConstraint=eastwest;whiteSpace=wrap;html=1;" vertex="1" parent="L8LmuGKj_omDpBavX5br-16">
          <mxGeometry y="26" width="210" height="26" as="geometry" />
        </mxCell>
        <mxCell id="L8LmuGKj_omDpBavX5br-18" value="" style="line;strokeWidth=1;fillColor=none;align=left;verticalAlign=middle;spacingTop=-1;spacingLeft=3;spacingRight=3;rotatable=0;labelPosition=right;points=[];portConstraint=eastwest;strokeColor=inherit;" vertex="1" parent="L8LmuGKj_omDpBavX5br-16">
          <mxGeometry y="52" width="210" height="8" as="geometry" />
        </mxCell>
        <mxCell id="L8LmuGKj_omDpBavX5br-19" value="- displayStocks(): Stock&lt;br&gt;- displayCommodities(): Commodity&lt;br&gt;- displayBonds(): Bond&lt;br&gt;- displayIndex(): Index" style="text;strokeColor=none;fillColor=none;align=left;verticalAlign=top;spacingLeft=4;spacingRight=4;overflow=hidden;rotatable=0;points=[[0,0.5],[1,0.5]];portConstraint=eastwest;whiteSpace=wrap;html=1;" vertex="1" parent="L8LmuGKj_omDpBavX5br-16">
          <mxGeometry y="60" width="210" height="80" as="geometry" />
        </mxCell>
        <mxCell id="L8LmuGKj_omDpBavX5br-20" value="Bond" style="swimlane;fontStyle=1;align=center;verticalAlign=top;childLayout=stackLayout;horizontal=1;startSize=26;horizontalStack=0;resizeParent=1;resizeParentMax=0;resizeLast=0;collapsible=1;marginBottom=0;whiteSpace=wrap;html=1;" vertex="1" parent="WIyWlLk6GJQsqaUBKTNV-1">
          <mxGeometry x="540" y="139" width="160" height="86" as="geometry" />
        </mxCell>
        <mxCell id="L8LmuGKj_omDpBavX5br-21" value="+ bondDuration: String" style="text;strokeColor=none;fillColor=none;align=left;verticalAlign=top;spacingLeft=4;spacingRight=4;overflow=hidden;rotatable=0;points=[[0,0.5],[1,0.5]];portConstraint=eastwest;whiteSpace=wrap;html=1;" vertex="1" parent="L8LmuGKj_omDpBavX5br-20">
          <mxGeometry y="26" width="160" height="26" as="geometry" />
        </mxCell>
        <mxCell id="L8LmuGKj_omDpBavX5br-22" value="" style="line;strokeWidth=1;fillColor=none;align=left;verticalAlign=middle;spacingTop=-1;spacingLeft=3;spacingRight=3;rotatable=0;labelPosition=right;points=[];portConstraint=eastwest;strokeColor=inherit;" vertex="1" parent="L8LmuGKj_omDpBavX5br-20">
          <mxGeometry y="52" width="160" height="8" as="geometry" />
        </mxCell>
        <mxCell id="L8LmuGKj_omDpBavX5br-23" value="- getInterestRate(): int" style="text;strokeColor=none;fillColor=none;align=left;verticalAlign=top;spacingLeft=4;spacingRight=4;overflow=hidden;rotatable=0;points=[[0,0.5],[1,0.5]];portConstraint=eastwest;whiteSpace=wrap;html=1;" vertex="1" parent="L8LmuGKj_omDpBavX5br-20">
          <mxGeometry y="60" width="160" height="26" as="geometry" />
        </mxCell>
        <mxCell id="L8LmuGKj_omDpBavX5br-32" value="Index" style="swimlane;fontStyle=1;align=center;verticalAlign=top;childLayout=stackLayout;horizontal=1;startSize=26;horizontalStack=0;resizeParent=1;resizeParentMax=0;resizeLast=0;collapsible=1;marginBottom=0;whiteSpace=wrap;html=1;" vertex="1" parent="WIyWlLk6GJQsqaUBKTNV-1">
          <mxGeometry x="620" y="-81" width="160" height="106" as="geometry" />
        </mxCell>
        <mxCell id="L8LmuGKj_omDpBavX5br-33" value="+ indexSymbol: String&lt;br&gt;+ indexPrice: Double" style="text;strokeColor=none;fillColor=none;align=left;verticalAlign=top;spacingLeft=4;spacingRight=4;overflow=hidden;rotatable=0;points=[[0,0.5],[1,0.5]];portConstraint=eastwest;whiteSpace=wrap;html=1;" vertex="1" parent="L8LmuGKj_omDpBavX5br-32">
          <mxGeometry y="26" width="160" height="34" as="geometry" />
        </mxCell>
        <mxCell id="L8LmuGKj_omDpBavX5br-34" value="" style="line;strokeWidth=1;fillColor=none;align=left;verticalAlign=middle;spacingTop=-1;spacingLeft=3;spacingRight=3;rotatable=0;labelPosition=right;points=[];portConstraint=eastwest;strokeColor=inherit;" vertex="1" parent="L8LmuGKj_omDpBavX5br-32">
          <mxGeometry y="60" width="160" height="20" as="geometry" />
        </mxCell>
        <mxCell id="L8LmuGKj_omDpBavX5br-35" value="- updateIndexes(): Index" style="text;strokeColor=none;fillColor=none;align=left;verticalAlign=top;spacingLeft=4;spacingRight=4;overflow=hidden;rotatable=0;points=[[0,0.5],[1,0.5]];portConstraint=eastwest;whiteSpace=wrap;html=1;" vertex="1" parent="L8LmuGKj_omDpBavX5br-32">
          <mxGeometry y="80" width="160" height="26" as="geometry" />
        </mxCell>
        <mxCell id="L8LmuGKj_omDpBavX5br-36" value="Stock" style="swimlane;fontStyle=1;align=center;verticalAlign=top;childLayout=stackLayout;horizontal=1;startSize=26;horizontalStack=0;resizeParent=1;resizeParentMax=0;resizeLast=0;collapsible=1;marginBottom=0;whiteSpace=wrap;html=1;" vertex="1" parent="WIyWlLk6GJQsqaUBKTNV-1">
          <mxGeometry x="295" y="-75" width="160" height="94" as="geometry" />
        </mxCell>
        <mxCell id="L8LmuGKj_omDpBavX5br-37" value="+ stockPrice: Double&lt;br&gt;+ stockSymbol: String" style="text;strokeColor=none;fillColor=none;align=left;verticalAlign=top;spacingLeft=4;spacingRight=4;overflow=hidden;rotatable=0;points=[[0,0.5],[1,0.5]];portConstraint=eastwest;whiteSpace=wrap;html=1;" vertex="1" parent="L8LmuGKj_omDpBavX5br-36">
          <mxGeometry y="26" width="160" height="34" as="geometry" />
        </mxCell>
        <mxCell id="L8LmuGKj_omDpBavX5br-38" value="" style="line;strokeWidth=1;fillColor=none;align=left;verticalAlign=middle;spacingTop=-1;spacingLeft=3;spacingRight=3;rotatable=0;labelPosition=right;points=[];portConstraint=eastwest;strokeColor=inherit;" vertex="1" parent="L8LmuGKj_omDpBavX5br-36">
          <mxGeometry y="60" width="160" height="8" as="geometry" />
        </mxCell>
        <mxCell id="L8LmuGKj_omDpBavX5br-39" value="- updateStock(): Stock" style="text;strokeColor=none;fillColor=none;align=left;verticalAlign=top;spacingLeft=4;spacingRight=4;overflow=hidden;rotatable=0;points=[[0,0.5],[1,0.5]];portConstraint=eastwest;whiteSpace=wrap;html=1;" vertex="1" parent="L8LmuGKj_omDpBavX5br-36">
          <mxGeometry y="68" width="160" height="26" as="geometry" />
        </mxCell>
        <mxCell id="L8LmuGKj_omDpBavX5br-41" value="" style="endArrow=diamondThin;endFill=0;endSize=24;html=1;rounded=0;exitX=1;exitY=0.5;exitDx=0;exitDy=0;" edge="1" parent="WIyWlLk6GJQsqaUBKTNV-1" source="L8LmuGKj_omDpBavX5br-36" target="L8LmuGKj_omDpBavX5br-32">
          <mxGeometry width="160" relative="1" as="geometry">
            <mxPoint x="360" y="20" as="sourcePoint" />
            <mxPoint x="540" y="133" as="targetPoint" />
          </mxGeometry>
        </mxCell>
        <mxCell id="L8LmuGKj_omDpBavX5br-42" value="Aggregates" style="edgeLabel;html=1;align=center;verticalAlign=middle;resizable=0;points=[];" vertex="1" connectable="0" parent="L8LmuGKj_omDpBavX5br-41">
          <mxGeometry x="-0.2667" y="1" relative="1" as="geometry">
            <mxPoint x="12" y="1" as="offset" />
          </mxGeometry>
        </mxCell>
        <mxCell id="L8LmuGKj_omDpBavX5br-43" value="" style="endArrow=open;startArrow=none;endFill=0;startFill=0;endSize=8;html=1;verticalAlign=bottom;labelBackgroundColor=none;strokeWidth=1;rounded=0;exitX=0.5;exitY=0;exitDx=0;exitDy=0;" edge="1" parent="WIyWlLk6GJQsqaUBKTNV-1" source="L8LmuGKj_omDpBavX5br-16" target="L8LmuGKj_omDpBavX5br-36">
          <mxGeometry width="160" relative="1" as="geometry">
            <mxPoint x="350" y="20" as="sourcePoint" />
            <mxPoint x="510" y="20" as="targetPoint" />
          </mxGeometry>
        </mxCell>
        <mxCell id="L8LmuGKj_omDpBavX5br-44" value="Lists" style="edgeLabel;html=1;align=center;verticalAlign=middle;resizable=0;points=[];" vertex="1" connectable="0" parent="L8LmuGKj_omDpBavX5br-43">
          <mxGeometry relative="1" as="geometry">
            <mxPoint as="offset" />
          </mxGeometry>
        </mxCell>
        <mxCell id="L8LmuGKj_omDpBavX5br-46" value="" style="endArrow=open;startArrow=none;endFill=0;startFill=0;endSize=8;html=1;verticalAlign=bottom;labelBackgroundColor=none;strokeWidth=1;rounded=0;" edge="1" parent="WIyWlLk6GJQsqaUBKTNV-1" source="L8LmuGKj_omDpBavX5br-16" target="L8LmuGKj_omDpBavX5br-12">
          <mxGeometry width="160" relative="1" as="geometry">
            <mxPoint x="350" y="20" as="sourcePoint" />
            <mxPoint x="510" y="20" as="targetPoint" />
          </mxGeometry>
        </mxCell>
        <mxCell id="L8LmuGKj_omDpBavX5br-47" value="Lists" style="edgeLabel;html=1;align=center;verticalAlign=middle;resizable=0;points=[];" vertex="1" connectable="0" parent="L8LmuGKj_omDpBavX5br-46">
          <mxGeometry x="0.1143" y="3" relative="1" as="geometry">
            <mxPoint x="9" y="-3" as="offset" />
          </mxGeometry>
        </mxCell>
        <mxCell id="L8LmuGKj_omDpBavX5br-48" value="" style="endArrow=open;startArrow=none;endFill=0;startFill=0;endSize=8;html=1;verticalAlign=bottom;labelBackgroundColor=none;strokeWidth=1;rounded=0;" edge="1" parent="WIyWlLk6GJQsqaUBKTNV-1" source="L8LmuGKj_omDpBavX5br-16" target="L8LmuGKj_omDpBavX5br-20">
          <mxGeometry width="160" relative="1" as="geometry">
            <mxPoint x="350" y="20" as="sourcePoint" />
            <mxPoint x="510" y="20" as="targetPoint" />
          </mxGeometry>
        </mxCell>
        <mxCell id="L8LmuGKj_omDpBavX5br-49" value="Lists" style="edgeLabel;html=1;align=center;verticalAlign=middle;resizable=0;points=[];" vertex="1" connectable="0" parent="L8LmuGKj_omDpBavX5br-48">
          <mxGeometry x="-0.2667" y="-2" relative="1" as="geometry">
            <mxPoint x="8" y="-2" as="offset" />
          </mxGeometry>
        </mxCell>
        <mxCell id="L8LmuGKj_omDpBavX5br-50" value="" style="endArrow=open;startArrow=none;endFill=0;startFill=0;endSize=8;html=1;verticalAlign=bottom;labelBackgroundColor=none;strokeWidth=1;rounded=0;entryX=0.5;entryY=0;entryDx=0;entryDy=0;" edge="1" parent="WIyWlLk6GJQsqaUBKTNV-1" source="L8LmuGKj_omDpBavX5br-24" target="L8LmuGKj_omDpBavX5br-36">
          <mxGeometry width="160" relative="1" as="geometry">
            <mxPoint x="350" y="20" as="sourcePoint" />
            <mxPoint x="510" y="20" as="targetPoint" />
          </mxGeometry>
        </mxCell>
        <mxCell id="L8LmuGKj_omDpBavX5br-51" value="Issues" style="edgeLabel;html=1;align=center;verticalAlign=middle;resizable=0;points=[];" vertex="1" connectable="0" parent="L8LmuGKj_omDpBavX5br-50">
          <mxGeometry x="-0.2187" y="-1" relative="1" as="geometry">
            <mxPoint as="offset" />
          </mxGeometry>
        </mxCell>
        <mxCell id="L8LmuGKj_omDpBavX5br-52" value="Treasury" style="swimlane;fontStyle=1;align=center;verticalAlign=top;childLayout=stackLayout;horizontal=1;startSize=26;horizontalStack=0;resizeParent=1;resizeParentMax=0;resizeLast=0;collapsible=1;marginBottom=0;whiteSpace=wrap;html=1;" vertex="1" parent="WIyWlLk6GJQsqaUBKTNV-1">
          <mxGeometry x="540" y="280" width="160" height="86" as="geometry" />
        </mxCell>
        <mxCell id="L8LmuGKj_omDpBavX5br-53" value="+ interestRate: int" style="text;strokeColor=none;fillColor=none;align=left;verticalAlign=top;spacingLeft=4;spacingRight=4;overflow=hidden;rotatable=0;points=[[0,0.5],[1,0.5]];portConstraint=eastwest;whiteSpace=wrap;html=1;" vertex="1" parent="L8LmuGKj_omDpBavX5br-52">
          <mxGeometry y="26" width="160" height="26" as="geometry" />
        </mxCell>
        <mxCell id="L8LmuGKj_omDpBavX5br-54" value="" style="line;strokeWidth=1;fillColor=none;align=left;verticalAlign=middle;spacingTop=-1;spacingLeft=3;spacingRight=3;rotatable=0;labelPosition=right;points=[];portConstraint=eastwest;strokeColor=inherit;" vertex="1" parent="L8LmuGKj_omDpBavX5br-52">
          <mxGeometry y="52" width="160" height="8" as="geometry" />
        </mxCell>
        <mxCell id="L8LmuGKj_omDpBavX5br-55" value="- issueBonds(): Bond" style="text;strokeColor=none;fillColor=none;align=left;verticalAlign=top;spacingLeft=4;spacingRight=4;overflow=hidden;rotatable=0;points=[[0,0.5],[1,0.5]];portConstraint=eastwest;whiteSpace=wrap;html=1;" vertex="1" parent="L8LmuGKj_omDpBavX5br-52">
          <mxGeometry y="60" width="160" height="26" as="geometry" />
        </mxCell>
        <mxCell id="L8LmuGKj_omDpBavX5br-56" value="" style="endArrow=open;startArrow=none;endFill=0;startFill=0;endSize=8;html=1;verticalAlign=bottom;labelBackgroundColor=none;strokeWidth=1;rounded=0;exitX=0.5;exitY=0;exitDx=0;exitDy=0;" edge="1" parent="WIyWlLk6GJQsqaUBKTNV-1" source="L8LmuGKj_omDpBavX5br-52" target="L8LmuGKj_omDpBavX5br-20">
          <mxGeometry width="160" relative="1" as="geometry">
            <mxPoint x="560" y="190" as="sourcePoint" />
            <mxPoint x="720" y="190" as="targetPoint" />
          </mxGeometry>
        </mxCell>
        <mxCell id="L8LmuGKj_omDpBavX5br-57" value="Issues" style="edgeLabel;html=1;align=center;verticalAlign=middle;resizable=0;points=[];" vertex="1" connectable="0" parent="L8LmuGKj_omDpBavX5br-56">
          <mxGeometry x="-0.1111" y="-2" relative="1" as="geometry">
            <mxPoint as="offset" />
          </mxGeometry>
        </mxCell>
        <mxCell id="L8LmuGKj_omDpBavX5br-58" value="" style="endArrow=open;startArrow=none;endFill=0;startFill=0;endSize=8;html=1;verticalAlign=bottom;labelBackgroundColor=none;strokeWidth=1;rounded=0;exitX=0.75;exitY=0;exitDx=0;exitDy=0;" edge="1" parent="WIyWlLk6GJQsqaUBKTNV-1" source="L8LmuGKj_omDpBavX5br-16" target="L8LmuGKj_omDpBavX5br-32">
          <mxGeometry width="160" relative="1" as="geometry">
            <mxPoint x="220" y="120" as="sourcePoint" />
            <mxPoint x="380" y="120" as="targetPoint" />
            <Array as="points">
              <mxPoint x="428" y="60" />
              <mxPoint x="700" y="60" />
            </Array>
          </mxGeometry>
        </mxCell>
        <mxCell id="L8LmuGKj_omDpBavX5br-59" value="Lists" style="edgeLabel;html=1;align=center;verticalAlign=middle;resizable=0;points=[];" vertex="1" connectable="0" parent="L8LmuGKj_omDpBavX5br-58">
          <mxGeometry x="-0.0278" y="2" relative="1" as="geometry">
            <mxPoint x="20" as="offset" />
          </mxGeometry>
        </mxCell>
        <mxCell id="L8LmuGKj_omDpBavX5br-60" value="ATS Class Diagram" style="shape=umlFrame;whiteSpace=wrap;html=1;pointerEvents=0;recursiveResize=0;container=1;collapsible=0;width=160;" vertex="1" parent="WIyWlLk6GJQsqaUBKTNV-1">
          <mxGeometry x="-80" y="-310" width="910" height="730" as="geometry" />
        </mxCell>
        <mxCell id="L8LmuGKj_omDpBavX5br-24" value="Company" style="swimlane;fontStyle=1;align=center;verticalAlign=top;childLayout=stackLayout;horizontal=1;startSize=26;horizontalStack=0;resizeParent=1;resizeParentMax=0;resizeLast=0;collapsible=1;marginBottom=0;whiteSpace=wrap;html=1;" vertex="1" parent="L8LmuGKj_omDpBavX5br-60">
          <mxGeometry x="375" y="81" width="160" height="108" as="geometry" />
        </mxCell>
        <mxCell id="L8LmuGKj_omDpBavX5br-25" value="+ companyName: String&lt;br&gt;+ companyID: int" style="text;strokeColor=none;fillColor=none;align=left;verticalAlign=top;spacingLeft=4;spacingRight=4;overflow=hidden;rotatable=0;points=[[0,0.5],[1,0.5]];portConstraint=eastwest;whiteSpace=wrap;html=1;" vertex="1" parent="L8LmuGKj_omDpBavX5br-24">
          <mxGeometry y="26" width="160" height="34" as="geometry" />
        </mxCell>
        <mxCell id="L8LmuGKj_omDpBavX5br-26" value="" style="line;strokeWidth=1;fillColor=none;align=left;verticalAlign=middle;spacingTop=-1;spacingLeft=3;spacingRight=3;rotatable=0;labelPosition=right;points=[];portConstraint=eastwest;strokeColor=inherit;" vertex="1" parent="L8LmuGKj_omDpBavX5br-24">
          <mxGeometry y="60" width="160" height="8" as="geometry" />
        </mxCell>
        <mxCell id="L8LmuGKj_omDpBavX5br-27" value="- issueStock(): Stock&lt;br&gt;- issueStatement(): String" style="text;strokeColor=none;fillColor=none;align=left;verticalAlign=top;spacingLeft=4;spacingRight=4;overflow=hidden;rotatable=0;points=[[0,0.5],[1,0.5]];portConstraint=eastwest;whiteSpace=wrap;html=1;" vertex="1" parent="L8LmuGKj_omDpBavX5br-24">
          <mxGeometry y="68" width="160" height="40" as="geometry" />
        </mxCell>
        <mxCell id="L8LmuGKj_omDpBavX5br-28" value="Financial Statement" style="swimlane;fontStyle=1;align=center;verticalAlign=top;childLayout=stackLayout;horizontal=1;startSize=26;horizontalStack=0;resizeParent=1;resizeParentMax=0;resizeLast=0;collapsible=1;marginBottom=0;whiteSpace=wrap;html=1;" vertex="1" parent="L8LmuGKj_omDpBavX5br-60">
          <mxGeometry x="690" y="92" width="180" height="86" as="geometry" />
        </mxCell>
        <mxCell id="L8LmuGKj_omDpBavX5br-29" value="+ employeeCount: int" style="text;strokeColor=none;fillColor=none;align=left;verticalAlign=top;spacingLeft=4;spacingRight=4;overflow=hidden;rotatable=0;points=[[0,0.5],[1,0.5]];portConstraint=eastwest;whiteSpace=wrap;html=1;" vertex="1" parent="L8LmuGKj_omDpBavX5br-28">
          <mxGeometry y="26" width="180" height="26" as="geometry" />
        </mxCell>
        <mxCell id="L8LmuGKj_omDpBavX5br-30" value="" style="line;strokeWidth=1;fillColor=none;align=left;verticalAlign=middle;spacingTop=-1;spacingLeft=3;spacingRight=3;rotatable=0;labelPosition=right;points=[];portConstraint=eastwest;strokeColor=inherit;" vertex="1" parent="L8LmuGKj_omDpBavX5br-28">
          <mxGeometry y="52" width="180" height="8" as="geometry" />
        </mxCell>
        <mxCell id="L8LmuGKj_omDpBavX5br-31" value="- releaseStatement(): String" style="text;strokeColor=none;fillColor=none;align=left;verticalAlign=top;spacingLeft=4;spacingRight=4;overflow=hidden;rotatable=0;points=[[0,0.5],[1,0.5]];portConstraint=eastwest;whiteSpace=wrap;html=1;" vertex="1" parent="L8LmuGKj_omDpBavX5br-28">
          <mxGeometry y="60" width="180" height="26" as="geometry" />
        </mxCell>
        <mxCell id="XPX1i0nfs8QmP0EptaZe-0" value="" style="endArrow=open;startArrow=none;endFill=0;startFill=0;endSize=8;html=1;verticalAlign=bottom;labelBackgroundColor=none;strokeWidth=1;rounded=0;" edge="1" parent="L8LmuGKj_omDpBavX5br-60">
          <mxGeometry width="160" relative="1" as="geometry">
            <mxPoint x="535" y="140" as="sourcePoint" />
            <mxPoint x="690" y="140" as="targetPoint" />
          </mxGeometry>
        </mxCell>
        <mxCell id="XPX1i0nfs8QmP0EptaZe-1" value="Issues" style="edgeLabel;html=1;align=center;verticalAlign=middle;resizable=0;points=[];" connectable="0" vertex="1" parent="XPX1i0nfs8QmP0EptaZe-0">
          <mxGeometry x="-0.2187" y="-1" relative="1" as="geometry">
            <mxPoint as="offset" />
          </mxGeometry>
        </mxCell>
      </root>
    </mxGraphModel>
  </diagram>
  <diagram name="Copy of Page-1" id="nZrFLLrPyrZDMKBzRKwm">
    <mxGraphModel grid="1" page="1" gridSize="10" guides="1" tooltips="1" connect="1" arrows="1" fold="1" pageScale="1" pageWidth="827" pageHeight="1169" math="0" shadow="0">
      <root>
        <mxCell id="EIvncJXxBnBu40h34VUk-0" />
        <mxCell id="EIvncJXxBnBu40h34VUk-1" parent="EIvncJXxBnBu40h34VUk-0" />
        <mxCell id="EIvncJXxBnBu40h34VUk-2" value="Commodity" style="swimlane;fontStyle=1;align=center;verticalAlign=top;childLayout=stackLayout;horizontal=1;startSize=26;horizontalStack=0;resizeParent=1;resizeParentMax=0;resizeLast=0;collapsible=1;marginBottom=0;whiteSpace=wrap;html=1;" parent="EIvncJXxBnBu40h34VUk-1" vertex="1">
          <mxGeometry x="-30" y="130" width="230" height="104" as="geometry" />
        </mxCell>
        <mxCell id="EIvncJXxBnBu40h34VUk-3" value="+ commoditySymbol: String&lt;br&gt;+ commodityPrice: Double" style="text;strokeColor=none;fillColor=none;align=left;verticalAlign=top;spacingLeft=4;spacingRight=4;overflow=hidden;rotatable=0;points=[[0,0.5],[1,0.5]];portConstraint=eastwest;whiteSpace=wrap;html=1;" parent="EIvncJXxBnBu40h34VUk-2" vertex="1">
          <mxGeometry y="26" width="230" height="44" as="geometry" />
        </mxCell>
        <mxCell id="EIvncJXxBnBu40h34VUk-4" value="" style="line;strokeWidth=1;fillColor=none;align=left;verticalAlign=middle;spacingTop=-1;spacingLeft=3;spacingRight=3;rotatable=0;labelPosition=right;points=[];portConstraint=eastwest;strokeColor=inherit;" parent="EIvncJXxBnBu40h34VUk-2" vertex="1">
          <mxGeometry y="70" width="230" height="8" as="geometry" />
        </mxCell>
        <mxCell id="EIvncJXxBnBu40h34VUk-5" value="- updateCommodities(): Commodity" style="text;strokeColor=none;fillColor=none;align=left;verticalAlign=top;spacingLeft=4;spacingRight=4;overflow=hidden;rotatable=0;points=[[0,0.5],[1,0.5]];portConstraint=eastwest;whiteSpace=wrap;html=1;" parent="EIvncJXxBnBu40h34VUk-2" vertex="1">
          <mxGeometry y="78" width="230" height="26" as="geometry" />
        </mxCell>
        <mxCell id="EIvncJXxBnBu40h34VUk-6" value="Exchange" style="swimlane;fontStyle=1;align=center;verticalAlign=top;childLayout=stackLayout;horizontal=1;startSize=26;horizontalStack=0;resizeParent=1;resizeParentMax=0;resizeLast=0;collapsible=1;marginBottom=0;whiteSpace=wrap;html=1;" parent="EIvncJXxBnBu40h34VUk-1" vertex="1">
          <mxGeometry x="270" y="113" width="210" height="140" as="geometry" />
        </mxCell>
        <mxCell id="EIvncJXxBnBu40h34VUk-7" value="+ marketIdentifierCode: String" style="text;strokeColor=none;fillColor=none;align=left;verticalAlign=top;spacingLeft=4;spacingRight=4;overflow=hidden;rotatable=0;points=[[0,0.5],[1,0.5]];portConstraint=eastwest;whiteSpace=wrap;html=1;" parent="EIvncJXxBnBu40h34VUk-6" vertex="1">
          <mxGeometry y="26" width="210" height="26" as="geometry" />
        </mxCell>
        <mxCell id="EIvncJXxBnBu40h34VUk-8" value="" style="line;strokeWidth=1;fillColor=none;align=left;verticalAlign=middle;spacingTop=-1;spacingLeft=3;spacingRight=3;rotatable=0;labelPosition=right;points=[];portConstraint=eastwest;strokeColor=inherit;" parent="EIvncJXxBnBu40h34VUk-6" vertex="1">
          <mxGeometry y="52" width="210" height="8" as="geometry" />
        </mxCell>
        <mxCell id="EIvncJXxBnBu40h34VUk-9" value="- displayStocks(): Stock&lt;br&gt;- displayCommodities(): Commodity&lt;br&gt;- displayBonds(): Bond&lt;br&gt;- displayIndex(): Index" style="text;strokeColor=none;fillColor=none;align=left;verticalAlign=top;spacingLeft=4;spacingRight=4;overflow=hidden;rotatable=0;points=[[0,0.5],[1,0.5]];portConstraint=eastwest;whiteSpace=wrap;html=1;" parent="EIvncJXxBnBu40h34VUk-6" vertex="1">
          <mxGeometry y="60" width="210" height="80" as="geometry" />
        </mxCell>
        <mxCell id="EIvncJXxBnBu40h34VUk-10" value="Bond" style="swimlane;fontStyle=1;align=center;verticalAlign=top;childLayout=stackLayout;horizontal=1;startSize=26;horizontalStack=0;resizeParent=1;resizeParentMax=0;resizeLast=0;collapsible=1;marginBottom=0;whiteSpace=wrap;html=1;" parent="EIvncJXxBnBu40h34VUk-1" vertex="1">
          <mxGeometry x="540" y="139" width="160" height="86" as="geometry" />
        </mxCell>
        <mxCell id="EIvncJXxBnBu40h34VUk-11" value="+ bondDuration: String" style="text;strokeColor=none;fillColor=none;align=left;verticalAlign=top;spacingLeft=4;spacingRight=4;overflow=hidden;rotatable=0;points=[[0,0.5],[1,0.5]];portConstraint=eastwest;whiteSpace=wrap;html=1;" parent="EIvncJXxBnBu40h34VUk-10" vertex="1">
          <mxGeometry y="26" width="160" height="26" as="geometry" />
        </mxCell>
        <mxCell id="EIvncJXxBnBu40h34VUk-12" value="" style="line;strokeWidth=1;fillColor=none;align=left;verticalAlign=middle;spacingTop=-1;spacingLeft=3;spacingRight=3;rotatable=0;labelPosition=right;points=[];portConstraint=eastwest;strokeColor=inherit;" parent="EIvncJXxBnBu40h34VUk-10" vertex="1">
          <mxGeometry y="52" width="160" height="8" as="geometry" />
        </mxCell>
        <mxCell id="EIvncJXxBnBu40h34VUk-13" value="- getInterestRate(): int" style="text;strokeColor=none;fillColor=none;align=left;verticalAlign=top;spacingLeft=4;spacingRight=4;overflow=hidden;rotatable=0;points=[[0,0.5],[1,0.5]];portConstraint=eastwest;whiteSpace=wrap;html=1;" parent="EIvncJXxBnBu40h34VUk-10" vertex="1">
          <mxGeometry y="60" width="160" height="26" as="geometry" />
        </mxCell>
        <mxCell id="EIvncJXxBnBu40h34VUk-14" value="Index" style="swimlane;fontStyle=1;align=center;verticalAlign=top;childLayout=stackLayout;horizontal=1;startSize=26;horizontalStack=0;resizeParent=1;resizeParentMax=0;resizeLast=0;collapsible=1;marginBottom=0;whiteSpace=wrap;html=1;" parent="EIvncJXxBnBu40h34VUk-1" vertex="1">
          <mxGeometry x="620" y="-81" width="160" height="106" as="geometry" />
        </mxCell>
        <mxCell id="EIvncJXxBnBu40h34VUk-15" value="+ indexSymbol: String&lt;br&gt;+ indexPrice: Double" style="text;strokeColor=none;fillColor=none;align=left;verticalAlign=top;spacingLeft=4;spacingRight=4;overflow=hidden;rotatable=0;points=[[0,0.5],[1,0.5]];portConstraint=eastwest;whiteSpace=wrap;html=1;" parent="EIvncJXxBnBu40h34VUk-14" vertex="1">
          <mxGeometry y="26" width="160" height="34" as="geometry" />
        </mxCell>
        <mxCell id="EIvncJXxBnBu40h34VUk-16" value="" style="line;strokeWidth=1;fillColor=none;align=left;verticalAlign=middle;spacingTop=-1;spacingLeft=3;spacingRight=3;rotatable=0;labelPosition=right;points=[];portConstraint=eastwest;strokeColor=inherit;" parent="EIvncJXxBnBu40h34VUk-14" vertex="1">
          <mxGeometry y="60" width="160" height="20" as="geometry" />
        </mxCell>
        <mxCell id="EIvncJXxBnBu40h34VUk-17" value="- updateIndexes(): Index" style="text;strokeColor=none;fillColor=none;align=left;verticalAlign=top;spacingLeft=4;spacingRight=4;overflow=hidden;rotatable=0;points=[[0,0.5],[1,0.5]];portConstraint=eastwest;whiteSpace=wrap;html=1;" parent="EIvncJXxBnBu40h34VUk-14" vertex="1">
          <mxGeometry y="80" width="160" height="26" as="geometry" />
        </mxCell>
        <mxCell id="EIvncJXxBnBu40h34VUk-18" value="Stock" style="swimlane;fontStyle=1;align=center;verticalAlign=top;childLayout=stackLayout;horizontal=1;startSize=26;horizontalStack=0;resizeParent=1;resizeParentMax=0;resizeLast=0;collapsible=1;marginBottom=0;whiteSpace=wrap;html=1;" parent="EIvncJXxBnBu40h34VUk-1" vertex="1">
          <mxGeometry x="295" y="-75" width="160" height="94" as="geometry" />
        </mxCell>
        <mxCell id="EIvncJXxBnBu40h34VUk-19" value="+ stockPrice: Double&lt;br&gt;+ stockSymbol: String" style="text;strokeColor=none;fillColor=none;align=left;verticalAlign=top;spacingLeft=4;spacingRight=4;overflow=hidden;rotatable=0;points=[[0,0.5],[1,0.5]];portConstraint=eastwest;whiteSpace=wrap;html=1;" parent="EIvncJXxBnBu40h34VUk-18" vertex="1">
          <mxGeometry y="26" width="160" height="34" as="geometry" />
        </mxCell>
        <mxCell id="EIvncJXxBnBu40h34VUk-20" value="" style="line;strokeWidth=1;fillColor=none;align=left;verticalAlign=middle;spacingTop=-1;spacingLeft=3;spacingRight=3;rotatable=0;labelPosition=right;points=[];portConstraint=eastwest;strokeColor=inherit;" parent="EIvncJXxBnBu40h34VUk-18" vertex="1">
          <mxGeometry y="60" width="160" height="8" as="geometry" />
        </mxCell>
        <mxCell id="EIvncJXxBnBu40h34VUk-21" value="- updateStock(): Stock" style="text;strokeColor=none;fillColor=none;align=left;verticalAlign=top;spacingLeft=4;spacingRight=4;overflow=hidden;rotatable=0;points=[[0,0.5],[1,0.5]];portConstraint=eastwest;whiteSpace=wrap;html=1;" parent="EIvncJXxBnBu40h34VUk-18" vertex="1">
          <mxGeometry y="68" width="160" height="26" as="geometry" />
        </mxCell>
        <mxCell id="EIvncJXxBnBu40h34VUk-22" value="" style="endArrow=diamondThin;endFill=0;endSize=24;html=1;rounded=0;exitX=1;exitY=0.5;exitDx=0;exitDy=0;" parent="EIvncJXxBnBu40h34VUk-1" source="EIvncJXxBnBu40h34VUk-18" target="EIvncJXxBnBu40h34VUk-14" edge="1">
          <mxGeometry width="160" relative="1" as="geometry">
            <mxPoint x="360" y="20" as="sourcePoint" />
            <mxPoint x="540" y="133" as="targetPoint" />
          </mxGeometry>
        </mxCell>
        <mxCell id="EIvncJXxBnBu40h34VUk-23" value="Aggregates" style="edgeLabel;html=1;align=center;verticalAlign=middle;resizable=0;points=[];" parent="EIvncJXxBnBu40h34VUk-22" vertex="1" connectable="0">
          <mxGeometry x="-0.2667" y="1" relative="1" as="geometry">
            <mxPoint x="12" y="1" as="offset" />
          </mxGeometry>
        </mxCell>
        <mxCell id="EIvncJXxBnBu40h34VUk-24" value="" style="endArrow=open;startArrow=none;endFill=0;startFill=0;endSize=8;html=1;verticalAlign=bottom;labelBackgroundColor=none;strokeWidth=1;rounded=0;exitX=0.5;exitY=0;exitDx=0;exitDy=0;" parent="EIvncJXxBnBu40h34VUk-1" source="EIvncJXxBnBu40h34VUk-6" target="EIvncJXxBnBu40h34VUk-18" edge="1">
          <mxGeometry width="160" relative="1" as="geometry">
            <mxPoint x="350" y="20" as="sourcePoint" />
            <mxPoint x="510" y="20" as="targetPoint" />
          </mxGeometry>
        </mxCell>
        <mxCell id="EIvncJXxBnBu40h34VUk-25" value="Lists" style="edgeLabel;html=1;align=center;verticalAlign=middle;resizable=0;points=[];" parent="EIvncJXxBnBu40h34VUk-24" vertex="1" connectable="0">
          <mxGeometry relative="1" as="geometry">
            <mxPoint as="offset" />
          </mxGeometry>
        </mxCell>
        <mxCell id="EIvncJXxBnBu40h34VUk-26" value="" style="endArrow=open;startArrow=none;endFill=0;startFill=0;endSize=8;html=1;verticalAlign=bottom;labelBackgroundColor=none;strokeWidth=1;rounded=0;" parent="EIvncJXxBnBu40h34VUk-1" source="EIvncJXxBnBu40h34VUk-6" target="EIvncJXxBnBu40h34VUk-2" edge="1">
          <mxGeometry width="160" relative="1" as="geometry">
            <mxPoint x="350" y="20" as="sourcePoint" />
            <mxPoint x="510" y="20" as="targetPoint" />
          </mxGeometry>
        </mxCell>
        <mxCell id="EIvncJXxBnBu40h34VUk-27" value="Lists" style="edgeLabel;html=1;align=center;verticalAlign=middle;resizable=0;points=[];" parent="EIvncJXxBnBu40h34VUk-26" vertex="1" connectable="0">
          <mxGeometry x="0.1143" y="3" relative="1" as="geometry">
            <mxPoint x="9" y="-3" as="offset" />
          </mxGeometry>
        </mxCell>
        <mxCell id="EIvncJXxBnBu40h34VUk-28" value="" style="endArrow=open;startArrow=none;endFill=0;startFill=0;endSize=8;html=1;verticalAlign=bottom;labelBackgroundColor=none;strokeWidth=1;rounded=0;" parent="EIvncJXxBnBu40h34VUk-1" source="EIvncJXxBnBu40h34VUk-6" target="EIvncJXxBnBu40h34VUk-10" edge="1">
          <mxGeometry width="160" relative="1" as="geometry">
            <mxPoint x="350" y="20" as="sourcePoint" />
            <mxPoint x="510" y="20" as="targetPoint" />
          </mxGeometry>
        </mxCell>
        <mxCell id="EIvncJXxBnBu40h34VUk-29" value="Lists" style="edgeLabel;html=1;align=center;verticalAlign=middle;resizable=0;points=[];" parent="EIvncJXxBnBu40h34VUk-28" vertex="1" connectable="0">
          <mxGeometry x="-0.2667" y="-2" relative="1" as="geometry">
            <mxPoint x="8" y="-2" as="offset" />
          </mxGeometry>
        </mxCell>
        <mxCell id="EIvncJXxBnBu40h34VUk-30" value="" style="endArrow=open;startArrow=none;endFill=0;startFill=0;endSize=8;html=1;verticalAlign=bottom;labelBackgroundColor=none;strokeWidth=1;rounded=0;entryX=0.5;entryY=0;entryDx=0;entryDy=0;" parent="EIvncJXxBnBu40h34VUk-1" source="EIvncJXxBnBu40h34VUk-41" target="EIvncJXxBnBu40h34VUk-18" edge="1">
          <mxGeometry width="160" relative="1" as="geometry">
            <mxPoint x="350" y="20" as="sourcePoint" />
            <mxPoint x="510" y="20" as="targetPoint" />
          </mxGeometry>
        </mxCell>
        <mxCell id="EIvncJXxBnBu40h34VUk-31" value="Issues" style="edgeLabel;html=1;align=center;verticalAlign=middle;resizable=0;points=[];" parent="EIvncJXxBnBu40h34VUk-30" vertex="1" connectable="0">
          <mxGeometry x="-0.2187" y="-1" relative="1" as="geometry">
            <mxPoint as="offset" />
          </mxGeometry>
        </mxCell>
        <mxCell id="EIvncJXxBnBu40h34VUk-32" value="Treasury" style="swimlane;fontStyle=1;align=center;verticalAlign=top;childLayout=stackLayout;horizontal=1;startSize=26;horizontalStack=0;resizeParent=1;resizeParentMax=0;resizeLast=0;collapsible=1;marginBottom=0;whiteSpace=wrap;html=1;" parent="EIvncJXxBnBu40h34VUk-1" vertex="1">
          <mxGeometry x="540" y="280" width="160" height="86" as="geometry" />
        </mxCell>
        <mxCell id="EIvncJXxBnBu40h34VUk-33" value="+ interestRate: int" style="text;strokeColor=none;fillColor=none;align=left;verticalAlign=top;spacingLeft=4;spacingRight=4;overflow=hidden;rotatable=0;points=[[0,0.5],[1,0.5]];portConstraint=eastwest;whiteSpace=wrap;html=1;" parent="EIvncJXxBnBu40h34VUk-32" vertex="1">
          <mxGeometry y="26" width="160" height="26" as="geometry" />
        </mxCell>
        <mxCell id="EIvncJXxBnBu40h34VUk-34" value="" style="line;strokeWidth=1;fillColor=none;align=left;verticalAlign=middle;spacingTop=-1;spacingLeft=3;spacingRight=3;rotatable=0;labelPosition=right;points=[];portConstraint=eastwest;strokeColor=inherit;" parent="EIvncJXxBnBu40h34VUk-32" vertex="1">
          <mxGeometry y="52" width="160" height="8" as="geometry" />
        </mxCell>
        <mxCell id="EIvncJXxBnBu40h34VUk-35" value="- issueBonds(): Bond" style="text;strokeColor=none;fillColor=none;align=left;verticalAlign=top;spacingLeft=4;spacingRight=4;overflow=hidden;rotatable=0;points=[[0,0.5],[1,0.5]];portConstraint=eastwest;whiteSpace=wrap;html=1;" parent="EIvncJXxBnBu40h34VUk-32" vertex="1">
          <mxGeometry y="60" width="160" height="26" as="geometry" />
        </mxCell>
        <mxCell id="EIvncJXxBnBu40h34VUk-36" value="" style="endArrow=open;startArrow=none;endFill=0;startFill=0;endSize=8;html=1;verticalAlign=bottom;labelBackgroundColor=none;strokeWidth=1;rounded=0;exitX=0.5;exitY=0;exitDx=0;exitDy=0;" parent="EIvncJXxBnBu40h34VUk-1" source="EIvncJXxBnBu40h34VUk-32" target="EIvncJXxBnBu40h34VUk-10" edge="1">
          <mxGeometry width="160" relative="1" as="geometry">
            <mxPoint x="560" y="190" as="sourcePoint" />
            <mxPoint x="720" y="190" as="targetPoint" />
          </mxGeometry>
        </mxCell>
        <mxCell id="EIvncJXxBnBu40h34VUk-37" value="Issues" style="edgeLabel;html=1;align=center;verticalAlign=middle;resizable=0;points=[];" parent="EIvncJXxBnBu40h34VUk-36" vertex="1" connectable="0">
          <mxGeometry x="-0.1111" y="-2" relative="1" as="geometry">
            <mxPoint as="offset" />
          </mxGeometry>
        </mxCell>
        <mxCell id="EIvncJXxBnBu40h34VUk-38" value="" style="endArrow=open;startArrow=none;endFill=0;startFill=0;endSize=8;html=1;verticalAlign=bottom;labelBackgroundColor=none;strokeWidth=1;rounded=0;exitX=0.75;exitY=0;exitDx=0;exitDy=0;" parent="EIvncJXxBnBu40h34VUk-1" source="EIvncJXxBnBu40h34VUk-6" target="EIvncJXxBnBu40h34VUk-14" edge="1">
          <mxGeometry width="160" relative="1" as="geometry">
            <mxPoint x="220" y="120" as="sourcePoint" />
            <mxPoint x="380" y="120" as="targetPoint" />
            <Array as="points">
              <mxPoint x="428" y="60" />
              <mxPoint x="700" y="60" />
            </Array>
          </mxGeometry>
        </mxCell>
        <mxCell id="EIvncJXxBnBu40h34VUk-39" value="Lists" style="edgeLabel;html=1;align=center;verticalAlign=middle;resizable=0;points=[];" parent="EIvncJXxBnBu40h34VUk-38" vertex="1" connectable="0">
          <mxGeometry x="-0.0278" y="2" relative="1" as="geometry">
            <mxPoint x="20" as="offset" />
          </mxGeometry>
        </mxCell>
        <mxCell id="EIvncJXxBnBu40h34VUk-40" value="ATS Class Diagram" style="shape=umlFrame;whiteSpace=wrap;html=1;pointerEvents=0;recursiveResize=0;container=1;collapsible=0;width=160;" parent="EIvncJXxBnBu40h34VUk-1" vertex="1">
          <mxGeometry x="-80" y="-310" width="910" height="730" as="geometry" />
        </mxCell>
        <mxCell id="EIvncJXxBnBu40h34VUk-41" value="Company" style="swimlane;fontStyle=1;align=center;verticalAlign=top;childLayout=stackLayout;horizontal=1;startSize=26;horizontalStack=0;resizeParent=1;resizeParentMax=0;resizeLast=0;collapsible=1;marginBottom=0;whiteSpace=wrap;html=1;" parent="EIvncJXxBnBu40h34VUk-40" vertex="1">
          <mxGeometry x="375" y="81" width="160" height="108" as="geometry" />
        </mxCell>
        <mxCell id="EIvncJXxBnBu40h34VUk-42" value="+ companyName: String&lt;br&gt;+ companyID: int" style="text;strokeColor=none;fillColor=none;align=left;verticalAlign=top;spacingLeft=4;spacingRight=4;overflow=hidden;rotatable=0;points=[[0,0.5],[1,0.5]];portConstraint=eastwest;whiteSpace=wrap;html=1;" parent="EIvncJXxBnBu40h34VUk-41" vertex="1">
          <mxGeometry y="26" width="160" height="34" as="geometry" />
        </mxCell>
        <mxCell id="EIvncJXxBnBu40h34VUk-43" value="" style="line;strokeWidth=1;fillColor=none;align=left;verticalAlign=middle;spacingTop=-1;spacingLeft=3;spacingRight=3;rotatable=0;labelPosition=right;points=[];portConstraint=eastwest;strokeColor=inherit;" parent="EIvncJXxBnBu40h34VUk-41" vertex="1">
          <mxGeometry y="60" width="160" height="8" as="geometry" />
        </mxCell>
        <mxCell id="EIvncJXxBnBu40h34VUk-44" value="- issueStock(): Stock&lt;br&gt;- issueStatement(): String" style="text;strokeColor=none;fillColor=none;align=left;verticalAlign=top;spacingLeft=4;spacingRight=4;overflow=hidden;rotatable=0;points=[[0,0.5],[1,0.5]];portConstraint=eastwest;whiteSpace=wrap;html=1;" parent="EIvncJXxBnBu40h34VUk-41" vertex="1">
          <mxGeometry y="68" width="160" height="40" as="geometry" />
        </mxCell>
        <mxCell id="EIvncJXxBnBu40h34VUk-45" value="Financial Statement" style="swimlane;fontStyle=1;align=center;verticalAlign=top;childLayout=stackLayout;horizontal=1;startSize=26;horizontalStack=0;resizeParent=1;resizeParentMax=0;resizeLast=0;collapsible=1;marginBottom=0;whiteSpace=wrap;html=1;" parent="EIvncJXxBnBu40h34VUk-40" vertex="1">
          <mxGeometry x="690" y="92" width="180" height="86" as="geometry" />
        </mxCell>
        <mxCell id="EIvncJXxBnBu40h34VUk-46" value="+ employeeCount: int" style="text;strokeColor=none;fillColor=none;align=left;verticalAlign=top;spacingLeft=4;spacingRight=4;overflow=hidden;rotatable=0;points=[[0,0.5],[1,0.5]];portConstraint=eastwest;whiteSpace=wrap;html=1;" parent="EIvncJXxBnBu40h34VUk-45" vertex="1">
          <mxGeometry y="26" width="180" height="26" as="geometry" />
        </mxCell>
        <mxCell id="EIvncJXxBnBu40h34VUk-47" value="" style="line;strokeWidth=1;fillColor=none;align=left;verticalAlign=middle;spacingTop=-1;spacingLeft=3;spacingRight=3;rotatable=0;labelPosition=right;points=[];portConstraint=eastwest;strokeColor=inherit;" parent="EIvncJXxBnBu40h34VUk-45" vertex="1">
          <mxGeometry y="52" width="180" height="8" as="geometry" />
        </mxCell>
        <mxCell id="EIvncJXxBnBu40h34VUk-48" value="- releaseStatement(): String" style="text;strokeColor=none;fillColor=none;align=left;verticalAlign=top;spacingLeft=4;spacingRight=4;overflow=hidden;rotatable=0;points=[[0,0.5],[1,0.5]];portConstraint=eastwest;whiteSpace=wrap;html=1;" parent="EIvncJXxBnBu40h34VUk-45" vertex="1">
          <mxGeometry y="60" width="180" height="26" as="geometry" />
        </mxCell>
        <mxCell id="aHxFFpe6cUHKxVbdNnuO-0" value="" style="endArrow=open;startArrow=none;endFill=0;startFill=0;endSize=8;html=1;verticalAlign=bottom;labelBackgroundColor=none;strokeWidth=1;rounded=0;" edge="1" parent="EIvncJXxBnBu40h34VUk-40" source="EIvncJXxBnBu40h34VUk-41" target="EIvncJXxBnBu40h34VUk-45">
          <mxGeometry width="160" relative="1" as="geometry">
            <mxPoint x="610" y="183" as="sourcePoint" />
            <mxPoint x="610" y="229" as="targetPoint" />
          </mxGeometry>
        </mxCell>
        <mxCell id="aHxFFpe6cUHKxVbdNnuO-1" value="Issues" style="edgeLabel;html=1;align=center;verticalAlign=middle;resizable=0;points=[];" connectable="0" vertex="1" parent="aHxFFpe6cUHKxVbdNnuO-0">
          <mxGeometry x="-0.2187" y="-1" relative="1" as="geometry">
            <mxPoint as="offset" />
          </mxGeometry>
        </mxCell>
      </root>
    </mxGraphModel>
  </diagram>
</mxfile>
